<?xml version="1.0" encoding="UTF-8"?>
<svg xmlns="http://www.w3.org/2000/svg" xmlns:xlink="http://www.w3.org/1999/xlink" width="72px" height="70.8px" viewBox="0 0 119 118" version="1.1">
<defs>
<clipPath id="clip1">
  <path d="M 26.710938 0 L 91 0 L 91 27 L 26.710938 27 Z M 26.710938 0 "/>
</clipPath>
<clipPath id="clip2">
  <path d="M 29 26 L 91.789062 26 L 91.789062 62.777344 L 29 62.777344 Z M 29 26 "/>
</clipPath>
</defs>
<g id="surface1">
<g clip-path="url(#clip1)" clip-rule="nonzero">
<path style=" stroke:none;fill-rule:nonzero;fill:rgb(94.117647%,54.117647%,12.941176%);fill-opacity:1;" d="M 26.664062 11.304688 L 29.355469 26.113281 L 90.726562 14.8125 L 88.035156 0 Z M 58.152344 9.496094 L 64.984375 8.238281 L 59.238281 16.617188 L 52.40625 17.875 Z M 45.175781 19.207031 L 38.339844 20.464844 L 44.085938 12.085938 L 50.921875 10.828125 Z M 72.21875 6.90625 L 79.050781 5.648438 L 73.304688 14.027344 L 66.472656 15.285156 Z M 36.855469 13.417969 L 32.234375 20.15625 L 31.203125 14.460938 Z M 80.535156 12.695312 L 85.15625 5.957031 L 86.1875 11.652344 Z M 80.535156 12.695312 "/>
</g>
<g clip-path="url(#clip2)" clip-rule="nonzero">
<path style=" stroke:none;fill-rule:nonzero;fill:rgb(94.117647%,54.117647%,12.941176%);fill-opacity:1;" d="M 29.351562 26.113281 L 29.351562 62.777344 L 91.742188 62.777344 L 91.742188 26.113281 Z M 86.542969 46.410156 L 34.601562 46.410156 L 34.601562 31.351562 L 86.542969 31.351562 Z M 86.542969 46.410156 "/>
</g>
<path style="fill:none;stroke-width:1;stroke-linecap:round;stroke-linejoin:miter;stroke:rgb(90.980392%,20.392157%,32.941176%);stroke-opacity:1;stroke-miterlimit:4;" d="M 15.413866 39.516817 L 48.315126 39.516817 " transform="matrix(1.859375,0,0,1.873016,0,0)"/>
<path style=" stroke:none;fill-rule:nonzero;fill:rgb(90.980392%,20.392157%,32.941176%);fill-opacity:1;" d="M 10.933594 116.53125 L 5.539062 116.53125 C 5.417969 116.53125 5.34375 116.457031 5.316406 116.308594 L 0.0390625 85.441406 C 0.0117188 85.316406 0.0625 85.253906 0.1875 85.253906 L 5.167969 85.253906 C 5.292969 85.253906 5.367188 85.316406 5.390625 85.441406 L 8.253906 105.742188 L 11.195312 85.441406 C 11.230469 85.316406 11.324219 85.253906 11.472656 85.253906 L 15.488281 85.253906 C 15.601562 85.253906 15.675781 85.316406 15.710938 85.441406 L 18.613281 105.742188 L 21.511719 85.441406 C 21.539062 85.316406 21.613281 85.253906 21.734375 85.253906 L 26.683594 85.253906 C 26.832031 85.253906 26.894531 85.316406 26.867188 85.441406 L 21.550781 116.308594 C 21.523438 116.371094 21.480469 116.425781 21.421875 116.476562 C 21.359375 116.511719 21.328125 116.53125 21.328125 116.53125 L 15.933594 116.53125 C 15.847656 116.53125 15.773438 116.457031 15.710938 116.308594 L 13.425781 100.179688 L 11.15625 116.308594 C 11.132812 116.457031 11.058594 116.53125 10.933594 116.53125 Z M 44.085938 116.53125 L 29.675781 116.53125 C 29.550781 116.53125 29.488281 116.457031 29.488281 116.308594 L 29.546875 85.441406 C 29.546875 85.316406 29.601562 85.253906 29.710938 85.253906 L 44.046875 85.253906 C 44.160156 85.253906 44.214844 85.328125 44.214844 85.476562 L 44.214844 90.515625 C 44.214844 90.628906 44.160156 90.683594 44.046875 90.683594 L 34.902344 90.683594 L 34.902344 97.707031 L 44.046875 97.707031 C 44.160156 97.707031 44.214844 97.765625 44.214844 97.875 L 44.273438 102.972656 C 44.273438 103.082031 44.210938 103.140625 44.085938 103.140625 L 34.902344 103.140625 L 34.902344 111.007812 L 44.085938 111.007812 C 44.210938 111.007812 44.273438 111.082031 44.273438 111.230469 L 44.273438 116.363281 C 44.273438 116.476562 44.210938 116.53125 44.085938 116.53125 Z M 56.414062 116.53125 L 48.417969 116.53125 C 48.292969 116.53125 48.230469 116.457031 48.230469 116.308594 L 48.324219 85.441406 C 48.324219 85.316406 48.386719 85.253906 48.511719 85.253906 L 57.082031 85.253906 C 58.769531 85.253906 60.28125 85.664062 61.621094 86.488281 C 62.957031 87.3125 64.019531 88.398438 64.800781 89.746094 C 65.566406 91.097656 65.953125 92.5625 65.953125 94.148438 C 65.953125 95.433594 65.660156 96.632812 65.078125 97.746094 C 64.507812 98.855469 63.820312 99.753906 63.015625 100.441406 C 63.871094 101.316406 64.539062 102.320312 65.023438 103.457031 C 65.492188 104.59375 65.730469 105.792969 65.730469 107.054688 C 65.730469 108.789062 65.3125 110.375 64.484375 111.8125 C 63.652344 113.261719 62.53125 114.410156 61.117188 115.257812 C 59.703125 116.105469 58.136719 116.53125 56.414062 116.53125 Z M 53.679688 90.609375 L 53.679688 97.652344 L 57.082031 97.652344 C 58.125 97.652344 58.960938 97.289062 59.59375 96.566406 C 60.238281 95.828125 60.558594 95.023438 60.558594 94.148438 C 60.558594 93.1875 60.21875 92.355469 59.539062 91.65625 C 58.84375 90.957031 58.023438 90.609375 57.082031 90.609375 Z M 53.679688 103.101562 L 53.644531 111.0625 L 56.414062 111.0625 C 57.480469 111.0625 58.398438 110.664062 59.164062 109.863281 C 59.945312 109.066406 60.335938 108.128906 60.335938 107.054688 C 60.335938 105.980469 59.945312 105.050781 59.164062 104.261719 C 58.398438 103.488281 57.480469 103.101562 56.414062 103.101562 Z M 74.207031 116.53125 L 69.167969 116.53125 C 69.019531 116.53125 68.945312 116.457031 68.945312 116.308594 L 68.984375 85.441406 C 68.984375 85.316406 69.042969 85.253906 69.167969 85.253906 L 74.171875 85.253906 C 74.28125 85.253906 74.335938 85.316406 74.335938 85.441406 L 74.394531 116.308594 C 74.394531 116.457031 74.332031 116.53125 74.207031 116.53125 Z M 83.542969 116.53125 L 78.503906 116.53125 C 78.378906 116.53125 78.316406 116.457031 78.316406 116.308594 L 78.410156 85.441406 C 78.410156 85.316406 78.464844 85.253906 78.578125 85.253906 L 84.023438 85.253906 C 84.148438 85.253906 84.253906 85.316406 84.339844 85.441406 L 88.394531 91.359375 L 92.464844 85.441406 C 92.554688 85.316406 92.660156 85.253906 92.78125 85.253906 L 98.269531 85.253906 C 98.378906 85.253906 98.433594 85.316406 98.433594 85.441406 L 98.527344 116.308594 C 98.527344 116.457031 98.472656 116.53125 98.359375 116.53125 L 93.304688 116.53125 C 93.191406 116.53125 93.136719 116.457031 93.136719 116.308594 L 93.082031 93.382812 L 88.394531 100.21875 L 83.765625 93.382812 L 83.710938 116.308594 C 83.710938 116.457031 83.652344 116.53125 83.542969 116.53125 Z M 100.757812 116.308594 L 106.300781 85.441406 C 106.324219 85.316406 106.398438 85.253906 106.523438 85.253906 L 112.996094 85.253906 C 113.105469 85.253906 113.179688 85.316406 113.21875 85.441406 L 118.515625 116.308594 C 118.554688 116.457031 118.496094 116.53125 118.347656 116.53125 L 113.382812 116.53125 C 113.273438 116.53125 113.199219 116.457031 113.160156 116.308594 L 112.679688 113.027344 L 106.617188 113.027344 L 106.113281 116.308594 C 106.089844 116.457031 106.015625 116.53125 105.890625 116.53125 L 100.945312 116.53125 C 100.820312 116.53125 100.757812 116.457031 100.757812 116.308594 Z M 109.515625 95.589844 L 107.507812 108.214844 L 111.785156 108.214844 L 109.964844 95.589844 L 109.683594 93.925781 Z M 109.515625 95.589844 "/>
</g>
</svg>
