<?xml version="1.0" standalone="no"?>
<svg xmlns="http://www.w3.org/2000/svg" viewBox="0 0 64 63" width="64" height="63"><g fill="#F08A21" color="#F08A21" transform="translate(14.365 0) scale(0.35) "><svg width="100.0" height="95.76" x="0.0" y="0.0" viewBox="0 0 100 95.76"><path d="M-0.068,17.242l4.131,22.594l94.305-17.242L94.236,0L-0.068,17.242z M48.314,14.487l10.5-1.92l-8.83,12.781l-10.499,1.92  L48.314,14.487z M28.372,29.301L17.873,31.22l8.83-12.781l10.499-1.92L28.372,29.301z M69.927,10.535l10.499-1.919l-8.83,12.781  l-10.499,1.919L69.927,10.535z M15.591,20.47l-7.1,10.276l-1.589-8.688L15.591,20.47z M82.708,19.366l7.1-10.277l1.589,8.688  L82.708,19.366z"></path><path d="M4.062,39.836V95.76h95.869V39.836H4.062z M91.942,70.794H12.124V47.825h79.818V70.794z"></path></svg></g><line x1="15.414249998092654" y1="39.516" x2="48.31424999809265" y2="39.516" stroke="#e83454" stroke-linecap="round"></line><path fill="#e83454" fill-rule="nonzero" d="M5.88 16.70L2.98 16.70Q2.88 16.70 2.86 16.58L2.86 16.58L0.02 0.10Q0 0 0.10 0L0.10 0L2.78 0Q2.88 0 2.90 0.10L2.90 0.10L4.44 10.94L6.02 0.10Q6.05 0 6.17 0L6.17 0L8.33 0Q8.42 0 8.45 0.10L8.45 0.10L10.01 10.94L11.57 0.10Q11.59 0 11.69 0L11.69 0L14.35 0Q14.47 0 14.45 0.10L14.45 0.10L11.59 16.58Q11.57 16.63 11.52 16.67Q11.47 16.70 11.47 16.70L11.47 16.70L8.57 16.70Q8.50 16.70 8.45 16.58L8.45 16.58L7.22 7.97L6 16.58Q5.98 16.70 5.88 16.70L5.88 16.70ZM23.71 16.70L15.96 16.70Q15.86 16.70 15.86 16.58L15.86 16.58L15.89 0.10Q15.89 0 15.98 0L15.98 0L23.69 0Q23.78 0 23.78 0.12L23.78 0.12L23.78 2.81Q23.78 2.90 23.69 2.90L23.69 2.90L18.77 2.90L18.77 6.65L23.69 6.65Q23.78 6.65 23.78 6.74L23.78 6.74L23.81 9.46Q23.81 9.55 23.71 9.55L23.71 9.55L18.77 9.55L18.77 13.75L23.71 13.75Q23.81 13.75 23.81 13.87L23.81 13.87L23.81 16.61Q23.81 16.70 23.71 16.70L23.71 16.70ZM30.34 16.70L26.04 16.70Q25.94 16.70 25.94 16.58L25.94 16.58L25.99 0.10Q25.99 0 26.09 0L26.09 0L30.70 0Q32.06 0 33.14 0.66Q34.22 1.32 34.85 2.40Q35.47 3.48 35.47 4.75L35.47 4.75Q35.47 5.78 35.00 6.67Q34.54 7.56 33.89 8.11L33.89 8.11Q34.58 8.81 34.97 9.72Q35.35 10.63 35.35 11.64L35.35 11.64Q35.35 13.03 34.68 14.18Q34.01 15.34 32.87 16.02Q31.73 16.70 30.34 16.70L30.34 16.70ZM28.87 2.86L28.87 6.62L30.70 6.62Q31.54 6.62 32.05 6.04Q32.57 5.45 32.57 4.75L32.57 4.75Q32.57 3.98 32.02 3.42Q31.46 2.86 30.70 2.86L30.70 2.86L28.87 2.86ZM28.87 9.53L28.85 13.78L30.34 13.78Q31.20 13.78 31.82 13.14Q32.45 12.50 32.45 11.64L32.45 11.64Q32.45 10.78 31.82 10.15Q31.20 9.53 30.34 9.53L30.34 9.53L28.87 9.53ZM39.91 16.70L37.20 16.70Q37.08 16.70 37.08 16.58L37.08 16.58L37.10 0.10Q37.10 0 37.20 0L37.20 0L39.89 0Q39.98 0 39.98 0.10L39.98 0.10L40.01 16.58Q40.01 16.70 39.91 16.70L39.91 16.70ZM44.93 16.70L42.22 16.70Q42.12 16.70 42.12 16.58L42.12 16.58L42.17 0.10Q42.17 0 42.26 0L42.26 0L45.19 0Q45.29 0 45.36 0.10L45.36 0.10L47.54 3.26L49.73 0.10Q49.80 0 49.90 0L49.90 0L52.85 0Q52.94 0 52.94 0.10L52.94 0.10L52.99 16.58Q52.99 16.70 52.90 16.70L52.90 16.70L50.18 16.70Q50.09 16.70 50.09 16.58L50.09 16.58L50.06 4.34L47.54 7.99L45.05 4.34L45.02 16.58Q45.02 16.70 44.93 16.70L44.93 16.70ZM54.19 16.58L54.19 16.58L57.17 0.10Q57.19 0 57.29 0L57.29 0L60.77 0Q60.86 0 60.89 0.10L60.89 0.10L63.74 16.58Q63.77 16.70 63.65 16.70L63.65 16.70L60.98 16.70Q60.89 16.70 60.86 16.58L60.86 16.58L60.60 14.83L57.34 14.83L57.07 16.58Q57.05 16.70 56.95 16.70L56.95 16.70L54.29 16.70Q54.19 16.70 54.19 16.58ZM58.90 5.52L57.82 12.26L60.12 12.26L59.14 5.52L58.99 4.63L58.90 5.52Z" transform="translate(0, 45.516)"></path></svg>